<mxfile host="app.diagrams.net" modified="2023-03-08T14:13:51.756Z" agent="5.0 (Macintosh; Intel Mac OS X 10_15_7) AppleWebKit/537.36 (KHTML, like Gecko) Chrome/110.0.0.0 Safari/537.36 Edg/110.0.1587.50" etag="hRMA2q9FIK8-_OckdUJD" version="20.8.23" type="github">
  <diagram name="第 1 页" id="nGnOO_WU3q4L03R6GwM_">
    <mxGraphModel dx="1229" dy="1131" grid="1" gridSize="10" guides="1" tooltips="1" connect="1" arrows="1" fold="1" page="1" pageScale="1" pageWidth="827" pageHeight="1169" math="0" shadow="0">
      <root>
        <mxCell id="0" />
        <mxCell id="1" parent="0" />
        <mxCell id="TAyeHP35auxYr9d-4LSB-1" value="NALU Header" style="rounded=0;whiteSpace=wrap;html=1;fillColor=#f8cecc;strokeColor=#b85450;fontSize=16;movable=0;resizable=0;rotatable=0;deletable=0;editable=0;locked=1;connectable=0;fontStyle=1" vertex="1" parent="1">
          <mxGeometry x="10" y="640" width="270" height="80" as="geometry" />
        </mxCell>
        <mxCell id="TAyeHP35auxYr9d-4LSB-2" value="NALU Payload" style="rounded=0;whiteSpace=wrap;html=1;fillColor=#ffe6cc;strokeColor=#d79b00;fontSize=16;movable=0;resizable=0;rotatable=0;deletable=0;editable=0;locked=1;connectable=0;fontStyle=1" vertex="1" parent="1">
          <mxGeometry x="280" y="640" width="640" height="80" as="geometry" />
        </mxCell>
        <mxCell id="TAyeHP35auxYr9d-4LSB-3" value="EBSP（Encapsulated Byte Sequence Payload）" style="rounded=0;whiteSpace=wrap;html=1;fontSize=16;fillColor=#fff2cc;strokeColor=#d6b656;fontStyle=1;movable=1;resizable=1;rotatable=1;deletable=1;editable=1;locked=0;connectable=1;" vertex="1" parent="1">
          <mxGeometry x="280" y="480" width="640" height="80" as="geometry" />
        </mxCell>
        <mxCell id="TAyeHP35auxYr9d-4LSB-4" value="0x03" style="rounded=0;whiteSpace=wrap;html=1;fontSize=16;fontStyle=1;fillColor=#fa6800;fontColor=#000000;strokeColor=#C73500;movable=0;resizable=0;rotatable=0;deletable=0;editable=0;locked=1;connectable=0;" vertex="1" parent="1">
          <mxGeometry x="320" y="480" width="40" height="80" as="geometry" />
        </mxCell>
        <mxCell id="TAyeHP35auxYr9d-4LSB-5" value="0x03" style="rounded=0;whiteSpace=wrap;html=1;fontSize=16;fillColor=#fa6800;fontColor=#000000;strokeColor=#C73500;fontStyle=1;movable=0;resizable=0;rotatable=0;deletable=0;editable=0;locked=1;connectable=0;" vertex="1" parent="1">
          <mxGeometry x="840" y="480" width="40" height="80" as="geometry" />
        </mxCell>
        <mxCell id="TAyeHP35auxYr9d-4LSB-6" value="" style="shape=flexArrow;endArrow=classic;html=1;rounded=0;fontSize=16;fillColor=#0066CC;" edge="1" parent="1">
          <mxGeometry width="50" height="50" relative="1" as="geometry">
            <mxPoint x="520" y="570" as="sourcePoint" />
            <mxPoint x="520" y="630" as="targetPoint" />
          </mxGeometry>
        </mxCell>
        <mxCell id="TAyeHP35auxYr9d-4LSB-8" value="RBSP（Raw Byte Sequence Payload）" style="rounded=0;whiteSpace=wrap;html=1;fontSize=16;fillColor=#e1d5e7;strokeColor=#9673a6;fontStyle=1" vertex="1" parent="1">
          <mxGeometry x="360" y="320" width="360" height="80" as="geometry" />
        </mxCell>
        <mxCell id="TAyeHP35auxYr9d-4LSB-9" value="Trailing Bits" style="rounded=0;whiteSpace=wrap;html=1;fontSize=16;fillColor=#9933FF;" vertex="1" parent="1">
          <mxGeometry x="720" y="320" width="120" height="80" as="geometry" />
        </mxCell>
        <mxCell id="TAyeHP35auxYr9d-4LSB-11" value="SODB（String Of Data Bits）" style="rounded=0;whiteSpace=wrap;html=1;fontSize=16;fillColor=#d5e8d4;strokeColor=#82b366;fontStyle=1" vertex="1" parent="1">
          <mxGeometry x="360" y="160" width="360" height="80" as="geometry" />
        </mxCell>
        <mxCell id="TAyeHP35auxYr9d-4LSB-12" value="" style="shape=flexArrow;endArrow=classic;html=1;rounded=0;fontSize=16;fillColor=#0066CC;" edge="1" parent="1">
          <mxGeometry width="50" height="50" relative="1" as="geometry">
            <mxPoint x="520" y="410" as="sourcePoint" />
            <mxPoint x="520" y="470" as="targetPoint" />
          </mxGeometry>
        </mxCell>
        <mxCell id="TAyeHP35auxYr9d-4LSB-13" value="" style="shape=flexArrow;endArrow=classic;html=1;rounded=0;fontSize=16;fillColor=#0066CC;" edge="1" parent="1">
          <mxGeometry width="50" height="50" relative="1" as="geometry">
            <mxPoint x="520" y="250" as="sourcePoint" />
            <mxPoint x="520" y="310" as="targetPoint" />
          </mxGeometry>
        </mxCell>
      </root>
    </mxGraphModel>
  </diagram>
</mxfile>
